<?xml version="1.0" encoding="UTF-8"?>
<svg width="148px" height="44px" viewBox="0 0 148 44" version="1.1" xmlns="http://www.w3.org/2000/svg" xmlns:xlink="http://www.w3.org/1999/xlink">
    <!-- Generator: sketchtool 53.2 (72643) - https://sketchapp.com -->
    <title>3A7EBD1E-58E3-4E9D-B455-09DAF69D4EA1</title>
    <desc>Created with sketchtool.</desc>
    <defs>
        <polygon id="path-1" points="0 44 148 44 148 0 0 0"></polygon>
    </defs>
    <g id="Web-App" stroke="none" stroke-width="1" fill="none" fill-rule="evenodd">
        <g id="Main_3" transform="translate(-122.000000, -635.000000)">
            <g id="top" transform="translate(115.000000, 221.000000)">
                <g id="logo" transform="translate(7.000000, 414.000000)">
                    <g>
                        <path d="M8.9450474,25.2352941 C6.26379845,25.2352941 4.10218734,24.5247818 2.46158698,23.1037571 C0.82030018,21.682046 0,19.7489032 0,17.3029559 L5.01927608,17.3029559 C5.01927608,18.3649488 5.39476077,19.1832393 6.14573013,19.757141 C6.8966995,20.3303563 7.81859335,20.6173072 8.91278455,20.6173072 C9.9101872,20.6173072 10.7792249,20.370859 11.5192111,19.877276 C12.2591974,19.3843795 12.6291906,18.7246671 12.6291906,17.8981387 C12.6291906,17.6091284 12.5783937,17.3462045 12.4768001,17.1100536 C12.37452,16.8739026 12.202909,16.665211 11.9619673,16.4826059 C11.7203391,16.3000008 11.4896941,16.1448552 11.2700321,16.0157959 C11.0496837,15.8874231 10.7256823,15.7583639 10.296655,15.6299911 C9.86762769,15.5009319 9.51616853,15.402078 9.24296395,15.3320565 C8.96907293,15.2627215 8.55926606,15.1631811 8.01217046,15.0348083 C6.08120443,14.5625064 4.68703735,14.1176639 3.82898276,13.6989079 C1.79093152,12.7227257 0.643197714,11.2213822 0.38578134,9.19419102 C0.343221833,8.87222939 0.321255635,8.53997048 0.321255635,8.19672781 C0.321255635,6.00821252 1.06947923,4.31122075 2.56592642,3.10437951 C4.06237361,1.89753827 6.10248418,1.29411765 8.68763103,1.29411765 C11.3263205,1.29411765 13.3719226,1.95108412 14.8251238,3.26501708 C16.2790115,4.57895003 17.0052689,6.39470377 17.0052689,8.71159182 L12.0663067,8.71159182 C12.0663067,7.76767447 11.7313222,7.04617837 11.0606668,6.54710352 C10.3900113,6.04871516 9.55666871,5.79952098 8.55926606,5.79952098 C7.66894863,5.79952098 6.90425038,5.98693148 6.26654422,6.36243896 C5.62815161,6.73794645 5.30895531,7.27958339 5.30895531,7.98734978 C5.30895531,8.29832764 5.39201499,8.58253257 5.55813436,8.83996458 C5.72494017,9.09739658 5.92057661,9.30677462 6.14573013,9.46741219 C6.37088366,9.62873624 6.70861394,9.79211976 7.15892098,9.95824921 C7.60991447,10.1243787 7.99844159,10.250692 8.32587522,10.3365026 C8.6526224,10.4223133 9.12764142,10.5403888 9.74955938,10.6907291 C10.2746888,10.8191018 10.6796905,10.9207017 10.9638782,10.9962151 C11.2480659,11.071042 11.6482626,11.1891174 12.1624089,11.349755 C12.6772416,11.5110791 13.0849891,11.6586734 13.3856515,11.7925381 C13.6856274,11.9264027 14.0556205,12.1090078 14.4956309,12.3396669 C14.9356413,12.570326 15.286414,12.800985 15.5493219,13.0316441 C15.8122298,13.2623032 16.0964175,13.5492541 16.4018849,13.8924967 C16.7080388,14.2357394 16.9407432,14.5947712 17.1020575,14.9702787 C17.2626853,15.3457862 17.3992876,15.7803314 17.5118643,16.2732279 C17.6251275,16.7668109 17.6814159,17.2926587 17.6814159,17.8500848 C17.6814159,19.0624179 17.4507709,20.1456918 16.9894807,21.1005929 C16.5281906,22.0548075 15.8980353,22.8298495 15.0990149,23.4250323 C14.2999944,24.0202151 13.3774141,24.4712359 12.3319604,24.7767219 C11.2858203,25.0822079 10.1573069,25.2352941 8.9450474,25.2352941" id="Fill-1" fill="#231F20"></path>
                        <path d="M52.0619469,25.2352941 C49.8113112,25.2352941 47.99626,24.6540167 46.6167934,23.4921472 C45.2373268,22.3302777 44.5420535,20.7955133 44.5309735,18.8892248 L49.253846,18.8892248 C49.2649261,19.6500951 49.5433124,20.233429 50.0896975,20.6405974 C50.6360826,21.0477658 51.3583635,21.25135 52.2565403,21.25135 C52.9705112,21.25135 53.5743741,21.0957486 54.066744,20.7852313 C54.5584213,20.4747139 54.8049525,20.0353285 54.8049525,19.4677604 C54.8049525,19.1784926 54.7211596,18.9269256 54.5535738,18.7123739 C54.3852955,18.4985077 54.1235292,18.3189149 53.7661975,18.174281 C53.4088658,18.0296471 53.0570742,17.9172302 52.7108225,17.8370304 C52.3645708,17.7568305 51.9102887,17.668405 51.347976,17.571754 C50.8389861,17.4860704 50.4117115,17.4086124 50.0654599,17.3386946 C49.7192082,17.2694623 49.3002437,17.165271 48.8078739,17.0254354 C48.315504,16.8862853 47.901387,16.7341112 47.5662154,16.5675423 C47.2303513,16.4016589 46.8764821,16.179567 46.5032229,15.9012667 C46.1299636,15.6229664 45.8321872,15.3145055 45.6105861,14.9772549 C45.3882925,14.6400043 45.2047792,14.230094 45.058661,13.7482095 C44.9125428,13.266325 44.8391374,12.7364577 44.8391374,12.1579221 C44.8391374,10.4764674 45.5046331,9.10827182 46.8356245,8.05333548 C48.1666158,6.99839914 49.9089541,6.47058824 52.0619469,6.47058824 C54.2260197,6.47058824 55.962818,7.01416492 57.2716493,8.10131829 C58.581173,9.18847166 59.2411287,10.6211013 59.2522087,12.3985216 L54.6429067,12.3985216 C54.6318267,11.7027709 54.3908355,11.1777019 53.9206258,10.8246855 C53.4497235,10.4709836 52.7869979,10.2941327 51.9324488,10.2941327 C51.1852377,10.2941327 50.5986874,10.4497341 50.1714129,10.7602514 C49.7434458,11.0707687 49.5301548,11.4834209 49.5301548,11.9975224 C49.5301548,12.1901391 49.5654725,12.3642482 49.6354153,12.5191641 C49.7060507,12.6747655 49.8300087,12.8084319 50.0086746,12.9208488 C50.1873405,13.0332656 50.3549263,13.1299167 50.5121245,13.2101166 C50.6686303,13.2903164 50.9068514,13.3705163 51.2260954,13.4514016 C51.5453394,13.5316014 51.8050282,13.5905517 52.0051616,13.627567 C52.2052951,13.6652678 52.510689,13.7214762 52.922036,13.7968778 C54.6643743,14.1073951 55.9191903,14.4281945 56.687869,14.7606468 C58.6248007,15.6174827 59.5929204,17.1166027 59.5929204,19.2586925 C59.5929204,21.0690153 58.9059571,22.5174107 57.531338,23.6045641 C56.1574115,24.6917174 54.3340502,25.2352941 52.0619469,25.2352941" id="Fill-3" fill="#231F20"></path>
                        <path d="M71.787029,20.2700899 L74,20.2700899 L74,24.5882353 L70.5507363,24.5882353 C68.5765551,24.5882353 67.0174796,24.0174698 65.8728155,22.8759389 C64.7288456,21.7337154 64.1568606,20.1675737 64.1568606,18.1761287 L64.1568606,10.52898 L60.9026549,10.52898 L60.9026549,9.48996519 L68.0129001,1.94117647 L68.939599,1.94117647 L68.939599,6.63336722 L73.9021239,6.63336722 L73.9021239,10.52898 L69.0215095,10.52898 L69.0215095,17.5263982 C69.0215095,18.4033266 69.2596052,19.0793789 69.7371848,19.5559404 C70.2140704,20.0318091 70.8978145,20.2700899 71.787029,20.2700899" id="Fill-5" fill="#231F20"></path>
                        <path d="M82.3301045,19.2991351 C83.264131,20.2258888 84.4414519,20.6885802 85.861368,20.6885802 C87.281284,20.6885802 88.4586049,20.2279452 89.3926314,19.3073607 C90.326658,18.3860908 90.7929721,17.2242213 90.7929721,15.8210669 C90.7929721,14.4179124 90.326658,13.256043 89.3926314,12.334773 C88.4586049,11.4135031 87.281284,10.9528681 85.861368,10.9528681 C84.4414519,10.9528681 83.264131,11.416245 82.3301045,12.3429987 C81.3960779,13.2690669 80.9290647,14.4288799 80.9290647,15.8210669 C80.9290647,17.2132538 81.3960779,18.3723814 82.3301045,19.2991351 L82.3301045,19.2991351 Z M91.9402308,6.93670696 L95.6106195,6.93670696 L95.6106195,24.7054268 L91.7598574,24.7054268 L91.3340923,23.1144539 C89.6848643,24.5285759 87.729421,25.2352941 85.4677625,25.2352941 C83.6766128,25.2352941 82.0539514,24.8281257 80.6011766,24.0144743 C79.1484018,23.2001375 78.0123291,22.073227 77.1929585,20.6323717 C76.3735879,19.192202 75.9646018,17.5882052 75.9646018,15.8210669 C75.9646018,14.0642106 76.3735879,12.4711813 77.1929585,11.0412936 C78.0123291,9.61140586 79.1484018,8.49203546 80.6011766,7.68386785 C82.0539514,6.87501477 83.6766128,6.47058824 85.4677625,6.47058824 C87.7727666,6.47058824 89.7554756,7.19375772 91.4158895,8.63941123 L91.9402308,6.93670696 Z" id="Fill-7" fill="#231F20"></path>
                        <mask id="mask-2" fill="white">
                            <use xlink:href="#path-1"></use>
                        </mask>
                        <g id="Clip-10"></g>
                        <path d="M100.19469,24.5882353 L104.778761,24.5882353 L104.778761,6.82561134 L100.19469,6.82561134 L100.19469,24.5882353 Z M100.19469,4.46498178 L104.763062,4.46498178 L104.763062,0 L100.19469,0 L100.19469,4.46498178 Z" id="Fill-9" fill="#231F20" mask="url(#mask-2)"></path>
                        <path d="M119.670638,6.47058824 C121.724927,6.47058824 123.357591,7.13981646 124.570726,8.47895581 C125.783162,9.81809515 126.389381,11.6134023 126.389381,13.8648773 L126.389381,24.5882353 L121.489991,24.5882353 L121.489991,14.633124 C121.489991,11.9869409 120.435577,10.6641908 118.326749,10.6641908 C117.070263,10.6641908 116.078778,11.0773368 115.352295,11.9043117 C114.625812,12.7312866 114.26292,13.8594142 114.26292,15.2893774 L114.26292,24.5882353 L109.362832,24.5882353 L109.362832,6.88646578 L112.721854,6.88646578 L113.672784,9.07921255 C114.371998,8.26862693 115.243218,7.63081146 116.286444,7.1671319 C117.329671,6.70276946 118.458201,6.47058824 119.670638,6.47058824" id="Fill-11" fill="#231F20" mask="url(#mask-2)"></path>
                        <path d="M38.5639335,40.7519212 C36.7690257,42.4859345 34.5043649,43.3529412 31.7685835,43.3529412 C29.0334858,43.3529412 26.7660899,42.4859345 24.9657119,40.7519212 C23.1653338,39.0179078 22.2654867,36.8006109 22.2654867,34.1000303 L22.2654867,6.47058824 L27.2495184,6.47058824 L27.2495184,33.8732535 C27.2495184,35.3099679 27.6686721,36.4604456 28.5076633,37.3246867 C29.3466545,38.1889278 30.433172,38.6210483 31.7685835,38.6210483 C33.1046787,38.6210483 34.1891449,38.1889278 35.0219821,37.3246867 C35.8555031,36.4604456 36.2719217,35.3099679 36.2719217,33.8732535 L36.2719217,6.47058824 L41.2566372,6.47058824 L41.2566372,34.1000303 C41.2566372,36.8006109 40.3588414,39.0179078 38.5639335,40.7519212" id="Fill-12" fill="#231F20" mask="url(#mask-2)"></path>
                        <path d="M50.339532,31.7058824 C51.3666345,31.7058824 52.1832824,32.0404839 52.7894756,32.7103697 C53.3956688,33.3795727 53.699115,34.2775339 53.699115,35.4028875 L53.699115,40.7647059 L51.2491714,40.7647059 L51.2491714,35.7873378 C51.2491714,34.4639547 50.7219861,33.8022632 49.6676154,33.8022632 C49.0397474,33.8022632 48.5440254,34.0091698 48.1804493,34.4229831 C47.8175724,34.8361135 47.6357843,35.4001561 47.6357843,36.1151107 L47.6357843,40.7647059 L45.1858407,40.7647059 L45.1858407,31.9141547 L46.8652826,31.9141547 L47.3407283,33.0101454 C47.6903207,32.6045264 48.1259129,32.2863135 48.6475047,32.0541411 C49.1690966,31.8219686 49.7333388,31.7058824 50.339532,31.7058824" id="Fill-13" fill="#231F20" mask="url(#mask-2)"></path>
                        <path d="M55.6637168,40.7647059 L58.2831858,40.7647059 L58.2831858,31.8831464 L55.6637168,31.8831464 L55.6637168,40.7647059 Z M55.6637168,30.7031413 L58.2742151,30.7031413 L58.2742151,28.4705882 L55.6637168,28.4705882 L55.6637168,30.7031413 Z" id="Fill-14" fill="#231F20" mask="url(#mask-2)"></path>
                        <polygon id="Fill-15" fill="#231F20" mask="url(#mask-2)" points="66.321462 31.7058824 68.7610619 31.7058824 65.3061371 40.7647059 63.1344701 40.7647059 59.5929204 31.7058824 62.1037005 31.7058824 64.2283618 37.775385"></polygon>
                        <path d="M74.0081919,33.1777083 C73.4804947,33.1777083 73.0319862,33.3301716 72.6640318,33.6350981 C72.2960773,33.9393155 72.04281,34.3662127 71.9042297,34.9143713 L76.1920255,34.9143713 C76.0268215,34.3548666 75.7564876,33.925842 75.3803412,33.6265886 C75.0041948,33.3273351 74.5468117,33.1777083 74.0081919,33.1777083 M78.5840708,35.8787901 C78.5840708,36.1276952 78.5683696,36.3716365 78.5362845,36.6099046 L71.8400596,36.6099046 C71.9417761,37.2360677 72.1827556,37.7161497 72.5643632,38.0515689 C72.9452883,38.3869881 73.4265645,38.5543431 74.0081919,38.5543431 C74.4191541,38.5543431 74.7884738,38.4600286 75.1161513,38.2721088 C75.4445114,38.0834798 75.699144,37.8232286 75.8800493,37.4906459 L78.392243,37.4906459 C78.0720748,38.4933578 77.5177538,39.2897124 76.7279147,39.8797098 C75.9387582,40.4697072 75.0321839,40.7647059 74.0081919,40.7647059 C73.149404,40.7647059 72.3698048,40.5526756 71.6680289,40.1293241 C70.9669357,39.7052635 70.416028,39.1223574 70.0159885,38.3798968 C69.615949,37.6374361 69.4159292,36.8148436 69.4159292,35.9114101 C69.4159292,35.0030127 69.6145836,34.1775837 70.0118925,33.4351231 C70.4098841,32.6926624 70.9587438,32.1111746 71.6605196,31.6899505 C72.3616128,31.2694356 73.1439427,31.0588235 74.0081919,31.0588235 C74.8936037,31.0588235 75.6882215,31.2758178 76.3920453,31.7112245 C77.0958691,32.1459221 77.6372195,32.7288281 78.0160966,33.4599427 C78.3949736,34.1917663 78.5840708,34.9973397 78.5840708,35.8787901" id="Fill-16" fill="#231F20" mask="url(#mask-2)"></path>
                        <path d="M85.0134697,31.7058824 L85.7876106,31.7058824 L85.7876106,34.0034352 L84.7686847,34.0034352 C84.104461,34.0034352 83.6290522,34.1647158 83.3417838,34.4879721 C83.0551898,34.8112284 82.9115557,35.3416468 82.9115557,36.0806177 L82.9115557,40.7647059 L80.5486726,40.7647059 L80.5486726,31.7545446 L82.0578428,31.7545446 L82.4766072,32.8626533 C83.077443,32.0917044 83.9230639,31.7058824 85.0134697,31.7058824" id="Fill-17" fill="#231F20" mask="url(#mask-2)"></path>
                        <path d="M90.3716814,40.7647059 C89.1973287,40.7647059 88.2498971,40.4640561 87.5301092,39.8634656 C86.8103213,39.2621661 86.4475366,38.468706 86.4424779,37.4823761 L88.9068119,37.4823761 C88.9118706,37.8759154 89.0578517,38.1779833 89.3425871,38.3878709 C89.6280451,38.5984675 90.0045607,38.7041204 90.4735791,38.7041204 C90.8457586,38.7041204 91.1608464,38.6232853 91.4173973,38.4630333 C91.6746709,38.3020722 91.802585,38.0751667 91.802585,37.7816078 C91.802585,37.631992 91.7592243,37.5015213 91.6717802,37.3909049 C91.5843361,37.2802884 91.4470272,37.187399 91.2605761,37.1129456 C91.0748477,37.0377832 90.8912873,36.9796387 90.7106177,36.9385121 C90.529948,36.8966764 90.2929094,36.8505862 89.9987793,36.8009506 C89.7335562,36.7569877 89.5109712,36.7165701 89.3303016,36.6804071 C89.1496319,36.644244 88.9306603,36.5903539 88.6733867,36.5187369 C88.4168358,36.4464108 88.2007549,36.3677029 88.0258667,36.2819043 C87.8509785,36.1961056 87.6659727,36.0812347 87.4708495,35.9365825 C87.276449,35.7926393 87.1210731,35.6338055 87.0054445,35.4593719 C86.8898159,35.2842292 86.7936997,35.0729235 86.7170957,34.8233274 C86.6412145,34.5744405 86.6029125,34.3000266 86.6029125,34.000795 C86.6029125,33.1307543 86.9505209,32.4230928 87.6450151,31.8778105 C88.3387865,31.3318192 89.2479162,31.0588235 90.3716814,31.0588235 C91.5005054,31.0588235 92.4067443,31.3403282 93.0903983,31.9026283 C93.7733296,32.4649285 94.1180473,33.2059167 94.123106,34.125593 L91.7180316,34.125593 C91.7122502,33.7653806 91.5872268,33.4938031 91.3415161,33.3108605 C91.0958054,33.127918 90.7496423,33.0371558 90.3037496,33.0371558 C89.9142259,33.0371558 89.6078101,33.1172818 89.3852251,33.2775338 C89.1619174,33.4384949 89.0506249,33.6519278 89.0506249,33.9178327 C89.0506249,34.0171039 89.0686919,34.107157 89.1055485,34.1879921 C89.1424051,34.2681181 89.2074462,34.3376079 89.3006717,34.3957524 C89.3931746,34.4538969 89.4813414,34.5035325 89.5630041,34.5453682 C89.6446667,34.5864948 89.7689675,34.6283305 89.9351835,34.6694571 C90.1021223,34.7112928 90.2372632,34.7417833 90.3420516,34.7609284 C90.44684,34.7807827 90.6058293,34.8098549 90.8204648,34.8481452 C91.7295945,35.0091063 92.3843413,35.1750309 92.7854279,35.3466282 C93.7957326,35.789803 94.300885,36.5655362 94.300885,37.6738277 C94.300885,38.6098128 93.9424364,39.35931 93.2255392,39.9216102 C92.508642,40.4839103 91.557597,40.7647059 90.3716814,40.7647059" id="Fill-18" fill="#231F20" mask="url(#mask-2)"></path>
                        <path d="M95.6106195,40.7647059 L98.2300885,40.7647059 L98.2300885,31.8831464 L95.6106195,31.8831464 L95.6106195,40.7647059 Z M95.6106195,30.7031413 L98.2211177,30.7031413 L98.2211177,28.4705882 L95.6106195,28.4705882 L95.6106195,30.7031413 Z" id="Fill-19" fill="#231F20" mask="url(#mask-2)"></path>
                        <path d="M104.98201,38.020198 L106.088496,38.020198 L106.088496,40.1176471 L104.363517,40.1176471 C103.376426,40.1176471 102.596888,39.8404096 102.024903,39.2859348 C101.452918,38.73146 101.166926,37.9704029 101.166926,37.0027636 L101.166926,33.2889935 L99.539823,33.2889935 L99.539823,32.7843137 L103.094599,29.1176471 L103.558295,29.1176471 L103.558295,31.3961079 L106.03921,31.3961079 L106.03921,33.2889935 L103.59925,33.2889935 L103.59925,36.6878434 C103.59925,37.1131202 103.718645,37.4421714 103.956741,37.6729783 C104.195531,37.9044581 104.537056,38.020198 104.98201,38.020198" id="Fill-20" fill="#231F20" mask="url(#mask-2)"></path>
                        <path d="M113.993071,31.7058824 L116.566372,31.7058824 L112.666029,40.6178455 C112.293877,41.4675665 111.931392,42.1276861 111.577882,42.5989014 C111.224373,43.0701166 110.813556,43.4214369 110.344051,43.6528621 C109.874546,43.8842874 109.305617,44 108.636572,44 L107.641636,44 L107.641636,41.8021572 L108.483293,41.8021572 C109.054984,41.8021572 109.463039,41.6962035 109.708839,41.483599 C109.953948,41.2716915 110.217009,40.8165087 110.498021,40.1194448 L110.529782,40.046253 L106.743363,31.7058824 L109.373281,31.7058824 L111.760161,37.2607853 L113.993071,31.7058824 Z" id="Fill-21" fill="#231F20" mask="url(#mask-2)"></path>
                        <polygon id="Fill-22" fill="#5062FF" mask="url(#mask-2)" points="130.973451 24.5882353 148 24.5882353 148 20.0588235 130.973451 20.0588235"></polygon>
                    </g>
                </g>
            </g>
        </g>
    </g>
</svg>