<?xml version="1.0" encoding="UTF-8"?>
<svg width="49px" height="64px" viewBox="0 0 49 64" version="1.1" xmlns="http://www.w3.org/2000/svg" xmlns:xlink="http://www.w3.org/1999/xlink">
    <!-- Generator: sketchtool 53.2 (72643) - https://sketchapp.com -->
    <title>B7ED4029-A5F3-4FBB-B16C-37FDEBF8CDDB</title>
    <desc>Created with sketchtool.</desc>
    <g id="Web-App" stroke="none" stroke-width="1" fill="none" fill-rule="evenodd">
        <g id="Main_3" transform="translate(-1376.000000, -520.000000)" fill="#5062FF" fill-rule="nonzero">
            <g id="top" transform="translate(115.000000, 221.000000)">
                <g id="other_path" transform="translate(1200.000000, 265.000000)">
                    <g id="recycle" transform="translate(61.000000, 34.000000)">
                        <path d="M35.0842265,39.9077201 L34.8966983,40.0963177 C34.5395246,37.6323973 33.4109721,35.3570745 31.6294539,33.5658835 C27.1152435,29.0259315 19.7702268,29.0259315 15.2560164,33.5658835 C14.5315194,34.2945118 14.5315194,35.4766492 15.2560164,36.2052775 C15.9809967,36.9343918 17.155948,36.9343918 17.8809283,36.2052775 C20.9475948,33.1211239 25.9378755,33.1211239 29.0045421,36.2052775 C29.9919651,37.1983311 30.683113,38.4106053 31.03642,39.7303023 C30.3099899,39.186869 29.279068,39.2447121 28.6198191,39.9077201 C27.894839,40.6363484 27.894839,41.8184858 28.6198191,42.5471141 L31.8522644,45.7979919 C32.2147546,46.162549 32.6893751,46.3448276 33.1644787,46.3448276 C33.6395825,46.3448276 34.1142029,46.162549 34.4766931,45.7979919 L37.7091384,42.5471141 C38.4341186,41.8184858 38.4341186,40.6363484 37.7091384,39.9077201 C36.9841581,39.1786057 35.8092067,39.1786057 35.0842265,39.9077201 L35.0842265,39.9077201 Z" id="Path"></path>
                        <path d="M30.6704252,50.5958352 C29.1851786,52.0895737 27.2098439,52.9122475 25.1088458,52.9122475 C23.0078476,52.9122475 21.032513,52.0895737 19.5467829,50.5958352 C18.5593573,49.6030871 17.8682077,48.3911861 17.5148998,47.0723811 C17.8421084,47.3168023 18.2302155,47.4411995 18.6192892,47.4411995 C19.094394,47.4411995 19.569499,47.258977 19.9319901,46.8945321 C20.6564889,46.166128 20.6564889,44.9843544 19.9319901,44.2559505 L16.6995365,41.0060732 C15.9745544,40.2776691 14.7996,40.2776691 14.0746179,41.0060732 L10.8426476,44.2559505 C10.1176655,44.9843544 10.1176655,46.166128 10.8421643,46.8945321 C11.5671464,47.623422 12.7421008,47.623422 13.4670829,46.8945321 L13.6546116,46.7059925 C14.0117862,49.1691546 15.140825,51.4437773 16.9223477,53.2344169 C19.1088938,55.4332349 22.0160721,56.6436782 25.1088458,56.6436782 C28.2011362,56.6436782 31.1087978,55.4332349 33.2953439,53.2344169 C34.020326,52.5060128 34.020326,51.3242393 33.2953439,50.5958352 C32.5703618,49.8669452 31.3954074,49.8669452 30.6704252,50.5958352 L30.6704252,50.5958352 Z" id="Path"></path>
                        <path d="M48.4340861,61.4736381 L44.3931897,50.6308876 L46.8560485,29.7139397 C46.8850349,29.4697994 46.8648919,29.2217532 46.7975846,28.9849372 L44.2821572,20.1602488 C44.154912,19.7149373 43.8670134,19.3321256 43.4729953,19.0850559 L29.6017891,10.3961093 L31.7585716,2.35852869 C31.9388765,1.68665511 31.7300764,0.970836244 31.2161825,0.498669241 C30.7027799,0.0269906119 29.968786,-0.123888069 29.3084864,0.107068568 L24.3876816,1.82972118 L19.218282,0.0982794614 C18.5599473,-0.122423198 17.8328316,0.0348030954 17.3258158,0.507458347 C16.8188,0.97962535 16.6139302,1.6910496 16.7932528,2.35852869 L18.9470874,10.3863437 L5.07784638,19.0860324 C4.59932557,19.3858365 4.28145819,19.8838822 4.21218571,20.4419865 L1.69675836,40.7036625 C1.66826322,40.9336425 1.68300199,41.1665521 1.73950088,41.391161 L4.11245291,50.7544225 L0.117246825,61.4741265 C-0.0969575351,62.0493205 -0.0144200754,62.6928739 0.338329243,63.1962907 C0.690587425,63.6997076 1.26933217,64 1.88639794,64 L46.6654263,64 C47.2824921,64 47.8607455,63.6997076 48.2139863,63.1962907 C48.5662444,62.6923855 48.6487819,62.0493205 48.4340861,61.4736381 Z M23.7991108,5.58947886 C24.198042,5.72326758 24.6308724,5.72033796 25.0283295,5.58117813 L27.1914988,4.82385548 L25.972106,9.36974425 L22.5792269,9.36974425 L21.3446041,4.76770322 L23.7991108,5.58947886 Z M4.59686913,60.2500079 L7.8536597,51.5112569 C7.98581799,51.1562771 8.00694355,50.7695592 7.91408894,50.4023725 L5.48463815,40.8149903 L7.8472729,21.782804 L19.9021638,14.2217849 L15.5124482,21.1231374 C15.3213346,21.4229414 15.220128,21.7705969 15.220128,22.1255767 L15.220128,26.2920719 C15.220128,27.327226 16.0651544,28.1670679 17.1066986,28.1670679 C18.1487339,28.1670679 18.9932691,27.327226 18.9932691,26.2920719 L18.9932691,22.6685443 L23.9636945,14.8541077 L28.1185712,23.2061409 C28.4472473,23.8672723 29.1158989,24.2505722 29.8110806,24.2505722 C30.092101,24.2505722 30.3770517,24.1880723 30.6457897,24.0557484 C31.5797404,23.5972533 31.96295,22.4722557 31.5011333,21.5440349 L27.5078924,13.5167081 L40.8489918,21.8741125 L43.0652209,29.6485101 L40.5930275,50.6421181 C40.5586369,50.9360627 40.5945014,51.2339137 40.6976733,51.5112569 L43.9544638,60.2500079 L4.59686913,60.2500079 Z" id="Shape"></path>
                    </g>
                </g>
            </g>
        </g>
    </g>
</svg>