<?xml version="1.0" encoding="UTF-8"?>
<svg width="64px" height="64px" viewBox="0 0 64 64" version="1.1" xmlns="http://www.w3.org/2000/svg" xmlns:xlink="http://www.w3.org/1999/xlink">
    <!-- Generator: sketchtool 53.2 (72643) - https://sketchapp.com -->
    <title>9C3B3417-784D-4BE6-AAD4-662AC357012E</title>
    <desc>Created with sketchtool.</desc>
    <g id="Web-App" stroke="none" stroke-width="1" fill="none" fill-rule="evenodd">
        <g id="Main_3" transform="translate(-1168.000000, -321.000000)" fill="#FFFFFF" fill-rule="nonzero">
            <g id="top" transform="translate(115.000000, 221.000000)">
                <g id="water_path" transform="translate(1000.000000, 65.000000)">
                    <g id="save-water" transform="translate(53.000000, 35.000000)">
                        <path d="M61.0061238,44.4762742 C59.1359835,43.063624 56.7677902,42.6052952 54.5065318,43.2186829 L42.2768888,46.536552 C42.511755,45.8727826 42.6406628,45.1591203 42.6406628,44.4156201 C42.6406628,40.905517 39.7905299,38.0498897 36.2865804,38.0498897 L27.9012231,38.0498897 C26.2620428,36.0664075 23.8352551,34.9090909 21.2253595,34.9090909 C18.6525739,34.9090909 16.3390688,36.0375479 14.7482288,37.8253722 C13.4864945,36.2928815 11.576803,35.3141028 9.44347588,35.3141028 L1.87502313,35.3141028 C0.839365856,35.3141028 0,36.1549426 0,37.1924189 L0,62.1216839 C0,63.15916 0.839365856,64 1.87502313,64 L9.44347588,64 C11.3600034,64 13.0953764,63.209542 14.3434387,61.9377655 C14.3766422,61.9397221 14.4098458,61.9426569 14.4435376,61.9426569 L21.7478269,61.9426569 C21.7531981,61.9426569 21.7590575,61.9436352 21.7644286,61.9436352 L35.4550273,61.9436352 C38.2636557,61.9436352 41.0000176,61.3889451 43.5874518,60.2947281 L62.8542911,52.1475321 C63.5574248,51.8501321 64.0105553,51.1550574 63.9998131,50.390524 C63.9670978,48.0445855 62.8757757,45.8889244 61.0061238,44.4762742 L61.0061238,44.4762742 Z M9.44347588,60.2433679 L3.75004627,60.2433679 L3.75004627,39.0707349 L9.44347588,39.0707349 C11.1666416,39.0707349 12.5685144,40.4750696 12.5685144,42.2012617 L12.5685144,43.0313404 C12.5563073,43.2201504 12.5480063,43.4104277 12.5480063,43.6021724 L12.5480063,53.2554451 L12.5602136,57.3300214 C12.4483958,58.9549605 11.0938869,60.2433679 9.44347588,60.2433679 L9.44347588,60.2433679 Z M42.1289378,56.8335394 C40.0053763,57.7316093 37.7597432,58.1870031 35.4550273,58.1870031 L27.253266,58.1870031 C27.2464299,58.1870031 27.2400822,58.1860248 27.2337345,58.1860248 L16.3127013,58.1860248 L16.3107481,57.4302961 C16.3151427,57.3251299 16.3185607,57.2189855 16.3185607,57.1128411 L16.3185607,43.1604746 C16.5421963,40.6448029 18.6569684,38.665723 21.2253595,38.665723 C22.9109272,38.665723 24.4622158,39.516835 25.3753131,40.9426921 C25.7200438,41.4807513 26.3147778,41.8065218 26.9534575,41.8065218 L36.2865804,41.8065218 C37.7226334,41.8065218 38.8906166,42.9770453 38.8906166,44.415131 C38.8906166,45.8532168 37.7240982,47.022762 36.289022,47.0242295 L31.9725625,47.0242295 C31.9715858,47.0242295 31.9706093,47.0242295 31.9701209,47.0242295 L28.0281778,47.0242295 C27.5306132,47.0242295 27.0540448,47.2223331 26.7024779,47.5745174 L24.7068478,49.5736522 C23.9744169,50.3068803 23.9744169,51.4964805 24.7068478,52.2297085 C25.4387903,52.9634257 26.626305,52.9634257 27.3582477,52.2297085 L28.8050429,50.7808616 L36.2865804,50.7808616 L36.2914634,50.7808616 L40.7275532,50.7808616 C40.8930826,50.7808616 41.0581238,50.75885 41.2177936,50.7153161 L55.4870127,46.8442242 C56.6217923,46.536552 57.8097952,46.7669393 58.7482834,47.4757101 C59.3591308,47.9369736 59.8039605,48.5567201 60.0451744,49.2576646 L42.1289378,56.8335394 Z" id="Shape"></path>
                        <path d="M31.5149095,33.9393939 C37.6638645,33.9393939 42.6666667,28.8773818 42.6666667,22.6555607 C42.6666667,20.1631004 41.0786061,15.8454874 37.8114897,9.4557344 C35.4867549,4.90930228 33.2012256,1.07044197 33.1053901,0.909384648 C32.7685141,0.344702019 32.1654287,0 31.5149095,0 C30.8648743,0 30.2617888,0.344702019 29.9249128,0.909384648 C29.8285935,1.07044197 27.543548,4.90930228 25.2188133,9.4557344 C21.9516969,15.8454874 20.3636364,20.1631004 20.3636364,22.6550695 C20.3636364,28.8773818 25.3659545,33.9393939 31.5149095,33.9393939 Z M31.5153935,5.60705365 C34.8759252,11.5651925 38.9494143,19.7403248 38.9494143,22.6555607 C38.9494143,26.7978765 35.6145355,30.1682956 31.5149095,30.1682956 C27.4157674,30.1682956 24.0808887,26.7978765 24.0808887,22.6555607 C24.0808887,19.742289 28.1543778,11.5661747 31.5153935,5.60705365 L31.5153935,5.60705365 Z" id="Shape"></path>
                    </g>
                </g>
            </g>
        </g>
    </g>
</svg>