<?xml version="1.0" encoding="UTF-8"?>
<svg width="64px" height="64px" viewBox="0 0 64 64" version="1.1" xmlns="http://www.w3.org/2000/svg" xmlns:xlink="http://www.w3.org/1999/xlink">
    <!-- Generator: sketchtool 53.2 (72643) - https://sketchapp.com -->
    <title>2F24E703-56DA-4213-9688-CC92EA8CBAE5</title>
    <desc>Created with sketchtool.</desc>
    <g id="Web-App" stroke="none" stroke-width="1" fill="none" fill-rule="evenodd">
        <g id="Main_3" transform="translate(-1368.000000, -321.000000)" fill="#FFFFFF" fill-rule="nonzero">
            <g id="top" transform="translate(115.000000, 221.000000)">
                <g id="ground_path" transform="translate(1200.000000, 65.000000)">
                    <g id="sprout" transform="translate(53.000000, 35.000000)">
                        <path d="M52.2270955,48.6905458 C51.0779727,45.2236842 48.7870371,41.8123782 45.7875244,39.1525341 C43.2831384,36.9312866 39.2563352,34.3274854 33.8089669,33.8279727 L33.8089669,29.3845029 L40.0409357,23.1525341 C41.3971735,23.5692008 43.7548733,24.1481481 46.3971735,24.1481481 C49.458577,24.1481481 52.9005848,23.3708577 55.6057505,20.6656921 C61.5818714,14.6900585 60.4108187,2.38304087 60.3581872,1.86208574 C60.2685185,0.977582908 59.5692008,0.278752437 58.6846978,0.189083821 C58.1637427,0.135964943 45.8572125,-1.03508772 39.8810916,4.94103317 C34.8411307,9.98099412 36.4946394,17.5774853 37.3947369,20.505848 L31.9381091,25.962963 L26.4814815,20.505848 C27.381579,17.5774853 29.0346004,9.98099412 23.9946393,4.94103317 C18.0185186,-1.03508772 5.71150097,0.136452242 5.19054584,0.188596522 C4.30653018,0.278265138 3.60721241,0.977582908 3.5175438,1.86208574 C3.46491234,2.38304087 2.29385968,14.6895712 8.26949315,20.6656921 C10.9751462,23.3708577 14.4166667,24.1476608 17.4785574,24.1476608 C20.1203704,24.1476608 22.4780701,23.5692008 23.834308,23.1520468 L30.0662768,29.3840156 L30.0662768,33.8240741 C24.5482456,34.3089668 20.5233918,36.8645225 18.035575,39.0438597 C15.0126706,41.6929824 12.7217349,45.1442495 11.5984405,48.6915205 C5.17982453,48.8265107 2.84217094e-14,54.0901559 2.84217094e-14,60.5404483 L2.84217094e-14,62.0604288 C2.84217094e-14,63.0940545 0.837719329,63.9317739 1.87134503,63.9317739 L62.0038986,63.9317739 C63.0375243,63.9317739 63.8752437,63.0940545 63.8752437,62.0604288 L63.8752437,60.5404483 C63.8752437,54.0730995 58.6691033,48.7992203 52.2270955,48.6905458 Z M42.5277778,7.58723194 C46.1617934,3.95370367 53.4965887,3.73245617 56.7231969,3.825536 C56.7568226,4.96881092 56.7495126,6.63011693 56.5589669,8.47319691 C56.2470761,11.4980506 55.3689084,15.6096492 52.9595516,18.0194932 C50.17154,20.8070175 45.9356725,20.6115985 43.1291423,20.0643275 L51.6096492,11.5838206 C52.3401559,10.8533139 52.3401559,9.66812869 51.6096492,8.93762183 C50.878655,8.20662768 49.6939571,8.20662768 48.962963,8.93762183 L40.4751462,17.4254386 C39.9225146,14.624269 39.7227096,10.3923002 42.5277778,7.58723194 Z M10.9161793,18.0190059 C7.28265107,14.3854776 7.05994155,7.05068226 7.1544834,3.82358681 C8.29727089,3.78947368 9.95857703,3.79727096 11.8021442,3.9878168 C14.826998,4.29970763 18.9385966,5.17787521 21.3479533,7.58723194 C24.1359649,10.3752436 23.9400584,14.6111112 23.3927875,17.4176413 L14.8679337,8.89278752 C14.1374268,8.16228067 12.9522417,8.16228067 12.2217349,8.89278752 C11.4907408,9.62378168 11.4907408,10.8084796 12.2217349,11.5394737 L20.7465887,20.0638402 C17.9390839,20.6115985 13.7037037,20.8065302 10.9161793,18.0190059 Z M3.75048733,60.1890838 C3.93469779,55.8801169 7.49805062,52.4312865 11.8518519,52.4312865 L13.0302144,52.4312865 C13.90692,52.4312865 14.6656921,51.8235868 14.8567252,50.9683236 C15.5916179,47.6788499 17.6496101,44.3586745 20.5024367,41.8591618 C22.5038986,40.1057505 25.7066277,38.0565302 30.0662768,37.5847953 L30.0662768,42.8640351 C29.4936647,42.7329435 28.9371345,42.5346004 28.4015595,42.2694931 C27.4746588,41.8109162 26.3528265,42.1900585 25.8942495,43.1164718 C25.4356725,44.0423977 25.8148148,45.1652047 26.7407407,45.6237817 C28.3162768,46.4035088 30.0082846,46.798733 31.7714425,46.798733 C31.8138401,46.798733 31.8557505,46.797271 31.8981482,46.7967837 C31.911306,46.797271 31.9244639,46.798733 31.9376218,46.798733 C31.962963,46.798733 31.9878168,46.7962962 32.0126705,46.7953216 C33.8260234,46.7563353 35.6145224,46.2831384 37.1998051,45.418616 C38.1072125,44.9234893 38.4420078,43.7870371 37.9468811,42.8796296 C37.4522417,41.9722223 36.3157895,41.6374269 35.4078947,42.1325536 C34.9020468,42.4083821 34.3645224,42.624269 33.8089669,42.7782651 L33.8089669,37.590156 C38.0911306,38.0779727 41.2889863,40.165692 43.3040936,41.9527291 C46.1135477,44.4439571 48.2407408,47.8235868 48.9951266,50.9931775 C49.1954191,51.8362573 49.9488304,52.4312865 50.8153021,52.4312865 L52.0233918,52.4312865 C56.377193,52.4312865 59.9405459,55.8801169 60.1252436,60.1890838 L3.75048733,60.1890838 Z" id="Shape"></path>
                    </g>
                </g>
            </g>
        </g>
    </g>
</svg>