<?xml version="1.0" encoding="UTF-8"?>
<svg width="64px" height="64px" viewBox="0 0 64 64" version="1.1" xmlns="http://www.w3.org/2000/svg" xmlns:xlink="http://www.w3.org/1999/xlink">
    <!-- Generator: sketchtool 53.2 (72643) - https://sketchapp.com -->
    <title>7D3E53B7-A781-4A4E-975A-8DA5C01301E6</title>
    <desc>Created with sketchtool.</desc>
    <g id="Web-App" stroke="none" stroke-width="1" fill="none" fill-rule="evenodd">
        <g id="Main_3" transform="translate(-1168.000000, -524.000000)" fill="#FFFFFF" fill-rule="nonzero">
            <g id="top" transform="translate(115.000000, 221.000000)">
                <g id="sun_path" transform="translate(1000.000000, 265.000000)">
                    <g id="sun" transform="translate(53.000000, 38.000000)">
                        <path d="M32,18 C24.2804571,18 18,24.2804571 18,32 C18,39.7195429 24.2804571,46 32,46 C39.7195429,46 46,39.7195429 46,32 C46,24.2804571 39.7195429,18 32,18 Z M32,42.1954637 C26.377906,42.1954637 21.8045363,37.622094 21.8045363,32 C21.8045363,26.377906 26.377906,21.8045363 32,21.8045363 C37.6215987,21.8045363 42.1954637,26.377906 42.1954637,32 C42.1954637,37.622094 37.6215987,42.1954637 32,42.1954637 Z" id="Shape"></path>
                        <path d="M17.7279535,43.5615641 L9.56156406,51.7274543 C8.81281198,52.4762063 8.81281198,53.6896839 9.56156406,54.438436 C9.93594004,54.8128121 10.4261231,55 10.9168054,55 C11.4074875,55 11.8981697,54.8128121 12.2720465,54.438436 L20.4384359,46.2720466 C21.187188,45.5237936 21.187188,44.3098169 20.4384359,43.5615641 C19.6901831,42.812812 18.4762064,42.812812 17.7279535,43.5615641 Z" id="Path"></path>
                        <path d="M15,32 C15,30.8953125 14.1632593,30 13.1308411,30 L1.86915888,30 C0.836740685,30 0,30.8953125 0,32 C0,33.1041667 0.836740685,34 1.86915888,34 L13.1308411,34 C14.1632593,34 15,33.1041667 15,32 Z" id="Path"></path>
                        <path d="M17.7279535,20.4384358 C18.1023294,20.8128119 18.5925125,21 19.0831948,21 C19.5738769,21 20.0645591,20.8128119 20.4384359,20.4384358 C21.187188,19.690183 21.187188,18.4762063 20.4384359,17.7279534 L12.2725457,9.56156406 C11.5237937,8.81281198 10.3103161,8.81281198 9.56156406,9.56156406 C8.81281198,10.3103161 8.81281198,11.5237937 9.56156406,12.2725457 L17.7279535,20.4384358 Z" id="Path"></path>
                        <path d="M30.0020822,13.1308411 C30.0020822,14.1632593 30.8969287,15 32.0010411,15 C33.1051535,15 34,14.1632593 34,13.1308411 L34,1.86915888 C34,0.852803738 33.1317022,0.0253115265 32.0510151,0.000486760125 C32.0338366,0.000486760125 32.0161374,0 31.9989589,0 C30.8948465,0 30,0.836740685 30,1.86915888 C30,1.89690417 30.0005205,1.92464947 30.0020822,1.95239489 L30.0020822,13.1308411 Z" id="Path"></path>
                        <path d="M44.9168052,21 C45.4074875,21 45.8981697,20.8128119 46.2720465,20.4384358 L54.4384359,12.2720465 C55.187188,11.5237937 55.187188,10.3103161 54.4384359,9.56156406 C53.6896839,8.81281198 52.4762063,8.81281198 51.7274543,9.56156406 L43.5615641,17.7279534 C42.812812,18.4762063 42.812812,19.6896838 43.5615641,20.4384358 C43.9354409,20.8128119 44.4261231,21 44.9168052,21 L44.9168052,21 Z" id="Path"></path>
                        <path d="M62.1069899,30.0002707 L50.8691589,30.0002707 C49.8367407,30.0002707 49,30.8955227 49,32.0001354 C49,33.1042273 49.8367407,34 50.8691589,34 L62.1308411,34 C63.1632593,34 64,33.1042273 64,31.9996146 C64,30.8866691 63.14963,29.9820429 62.1069899,30.0002707 L62.1069899,30.0002707 Z" id="Path"></path>
                        <path d="M46.2721486,43.5615641 C45.5238723,42.812812 44.3098577,42.812812 43.5615816,43.5615641 C42.8128061,44.3098169 42.8128061,45.5237936 43.5615816,46.2720466 L51.7277266,54.438436 C52.1021142,54.8128121 52.5928118,55 53.08301,55 C53.5737076,55 54.0644051,54.8128121 54.4387928,54.438436 C55.1870691,53.6896839 55.1870691,52.4762063 54.4387928,51.7274543 L46.2721486,43.5615641 Z" id="Path"></path>
                        <path d="M32,49 C30.8953125,49 30,49.8367407 30,50.8691589 L30,62.1308411 C30,63.1632593 30.8953125,64 32,64 C33.1046875,64 34,63.1632593 34,62.1308411 L34,50.8691589 C34,49.8367407 33.1046875,49 32,49 Z" id="Path"></path>
                        <path d="M25.8250446,48.1435555 C24.8544469,47.7462671 23.7411581,48.2018505 23.3393437,49.1615151 L21.1454662,54.3987655 C20.7431562,55.35843 21.2039299,56.4586885 22.1750229,56.8564667 C22.4128416,56.9539518 22.6595786,57 22.9023518,57 C23.6490034,57 24.3570095,56.5625419 24.6607238,55.8380174 L26.8546014,50.6012568 C27.2569113,49.6415923 26.7956422,48.5413338 25.8250446,48.1435555 L25.8250446,48.1435555 Z" id="Path"></path>
                        <path d="M40.6625121,49.1625166 C40.260494,48.2021944 39.1466408,47.7458085 38.1755511,48.1438593 C37.2044614,48.5419102 36.7429585,49.6429227 37.1454723,50.6032447 L39.3374878,55.837221 C39.6413561,56.5622422 40.3497211,57 41.0967513,57 C41.3396477,57 41.5865096,56.9539202 41.8244489,56.8563684 C42.7955385,56.4583174 43.2570416,55.357305 42.8545277,54.3964927 L40.6625121,49.1625166 Z" id="Path"></path>
                        <path d="M38.1740309,15.8567007 C38.4116058,15.9540268 38.6580898,16 38.9001191,16 C39.6460051,16 40.3537802,15.5632551 40.6571831,14.8399116 L42.8547504,9.59701612 C43.2566479,8.63891607 42.7958518,7.54045128 41.8262494,7.14332151 C40.856647,6.74668079 39.7444997,7.20152147 39.3430972,8.15962152 L37.1450348,13.402517 C36.7436323,14.3611061 37.2039336,15.459571 38.1740309,15.8567007 Z" id="Path"></path>
                        <path d="M23.3391931,14.8380804 C23.6428966,15.5625656 24.3513731,16 25.0979981,16 C25.3402673,16 25.5869955,15.9534644 25.8248057,15.8559846 C26.7958643,15.4587178 27.2566217,14.3580294 26.8548215,13.3984171 L24.6605264,8.16145186 C24.2587261,7.20183955 23.1454768,6.74628095 22.1749137,7.14354773 C21.2043506,7.54081438 20.7430978,8.64150292 21.1453935,9.60111523 L23.3391931,14.8380804 Z" id="Path"></path>
                        <path d="M54.8352811,39.332713 L49.6086376,37.1454434 C48.6463262,36.7429302 47.5425416,37.2045052 47.1441574,38.1767903 C46.7452819,39.1495718 47.2026133,40.2643001 48.1649247,40.6673096 L53.3915681,42.8545791 C53.6273566,42.9533461 53.8719871,43 54.1121965,43 C54.852474,43 55.5549271,42.5567889 55.8560485,41.8232321 C56.2544327,40.8504506 55.7975926,39.7357224 54.8352811,39.332713 L54.8352811,39.332713 Z" id="Path"></path>
                        <path d="M53.3915137,21.1457244 L48.1647464,23.3325781 C47.2024121,23.7356023 46.7455613,24.8503715 47.1439549,25.8231888 C47.4450835,26.5572689 48.1475531,27 48.8873569,27 C49.1280632,27 49.3726995,26.9533444 49.6084935,26.8545738 L54.8347696,24.6672238 C55.7975952,24.2646958 56.254446,23.1494302 55.8560523,22.1771094 C55.4571675,21.2042921 54.353848,20.7427001 53.3915137,21.1457244 L53.3915137,21.1457244 Z" id="Path"></path>
                        <path d="M9.16510414,24.6673097 L14.3913051,26.8545791 C14.6275648,26.9533463 14.8721745,27 15.1123637,27 C15.8525784,27 16.554972,26.5572853 16.8560679,25.8232322 C17.2544184,24.8504507 16.797617,23.7357224 15.8348958,23.3332093 L10.6082037,21.1454435 C9.6459736,20.7429303 8.54277373,21.2045051 8.14393208,22.1767904 C7.74558158,23.1495719 8.20238292,24.2643001 9.16510414,24.6673097 Z" id="Path"></path>
                        <path d="M10.6082068,42.8545791 L15.8353816,40.6668133 C16.7976101,40.2643001 17.2544107,39.1490756 16.856061,38.1767905 C16.4572199,37.2045052 15.3540218,36.7429302 14.3913021,37.1454434 L9.16461845,39.332713 C8.20238994,39.7357224 7.74558921,40.8504507 8.14393907,41.8232322 C8.44503453,42.5572851 9.14693585,43 9.88714929,43 C10.1278293,43 10.3724387,42.9533463 10.6082068,42.8545791 Z" id="Path"></path>
                    </g>
                </g>
            </g>
        </g>
    </g>
</svg>